<!DOCTYPE svg PUBLIC "-//W3C//DTD SVG 1.1//EN" "http://www.w3.org/Graphics/SVG/1.1/DTD/svg11.dtd">
<!-- Uploaded to: SVG Repo, www.svgrepo.com, Transformed by: SVG Repo Mixer Tools -->
<svg fill="#ff5722" width="800px" height="800px" viewBox="-3.2 -3.2 38.40 38.40" version="1.1" xmlns="http://www.w3.org/2000/svg">
<g id="SVGRepo_bgCarrier" stroke-width="0" transform="translate(16,16), scale(0)">
<path transform="translate(-3.2, -3.2), scale(1.2)" d="M16,27.83319706789085C18.738347810841418,27.70406208816312,21.047099640556553,26.23901091360324,23.37003647303125,24.78326744428535C26.17120876847364,23.0278222601904,30.14559791486767,21.850980590862612,30.736064567325982,18.598365772681582C31.326563519168808,15.345573031740269,27.88036691721156,12.947164505751346,26.014091036405752,10.218361844441723C24.34778290065103,7.781944955505628,23.121202223905314,4.992625467856912,20.501139724319476,3.633220245622047C17.603318151296264,2.1297012341117103,14.24360997514497,1.6834373474672515,11.074381571097117,2.4669745897397704C7.606320771401974,3.324393004757084,4.289096897426295,5.1186160749869325,2.3519509128067533,8.120295185595744C0.3497309234002759,11.222808865392151,-0.5580767704770122,15.20725705095368,0.5868770532686725,18.717749432485487C1.6599559488152267,22.007869269174613,5.043914247701112,23.74536150991826,8.022664130670764,25.507018681603768C10.48091178673023,26.960846556792433,13.147194710760088,27.967729632284108,16,27.83319706789085" fill="#f5fff5" strokewidth="0"/>
</g>
<g id="SVGRepo_tracerCarrier" stroke-linecap="round" stroke-linejoin="round" stroke="#0000" stroke-width="1.8559999999999999"> <title>menu</title> <path d="M15.4 12.6h-14.56c-0.48 0-0.84-0.36-0.84-0.84s0.36-0.84 0.84-0.84h14.52c0.48 0 0.84 0.36 0.84 0.84 0.040 0.44-0.36 0.84-0.8 0.84zM15.4 16.84h-14.56c-0.48 0-0.84-0.36-0.84-0.84s0.36-0.84 0.84-0.84h14.52c0.48 0 0.84 0.36 0.84 0.84s-0.36 0.84-0.8 0.84zM15.4 21.080h-14.56c-0.48 0-0.84-0.36-0.84-0.84s0.36-0.84 0.84-0.84h14.52c0.48 0 0.84 0.36 0.84 0.84s-0.36 0.84-0.8 0.84z"/> </g>
<g id="SVGRepo_iconCarrier"> <title>menu</title> <path d="M15.4 12.6h-14.56c-0.48 0-0.84-0.36-0.84-0.84s0.36-0.84 0.84-0.84h14.52c0.48 0 0.84 0.36 0.84 0.84 0.040 0.44-0.36 0.84-0.8 0.84zM15.4 16.84h-14.56c-0.48 0-0.84-0.36-0.84-0.84s0.36-0.84 0.84-0.84h14.52c0.48 0 0.84 0.36 0.84 0.84s-0.36 0.84-0.8 0.84zM15.4 21.080h-14.56c-0.48 0-0.84-0.36-0.84-0.84s0.36-0.84 0.84-0.84h14.52c0.48 0 0.84 0.36 0.84 0.84s-0.36 0.84-0.8 0.84z"/> </g>
</svg>